<svg xmlns="http://www.w3.org/2000/svg" width="27" height="30" viewBox="0 0 27 30">
<g>
<path d="M 0.00 0.00 L 27.00 0.00 L 27.00 30.00 L 0.00 30.00 ZM 17.25 25.34 C19.43,26.22 20.05,26.04 20.69,24.37 C21.03,23.47 20.79,21.90 20.16,20.88 C18.74,18.61 18.63,12.35 20.00,11.50 C20.55,11.16 21.00,10.01 21.00,8.94 C21.00,7.54 20.31,7.00 18.50,7.00 C17.04,7.00 16.00,7.57 16.00,8.38 C16.00,10.30 11.61,13.00 8.50,13.00 C5.58,13.00 4.17,15.46 5.70,17.89 C6.27,18.77 7.80,19.50 9.11,19.50 C11.91,19.50 16.00,21.97 16.00,23.66 C16.00,24.30 16.56,25.06 17.25,25.34 ZM 17.00 16.00 C17.00,20.21 16.59,20.57 13.75,18.92 C11.51,17.61 11.51,15.09 13.75,13.39 C16.49,11.31 17.00,11.72 17.00,16.00 Z" fill="rgb(7,25,26)"/>
<path d="M 17.00 16.00 C17.00,11.98 16.56,11.37 14.24,13.03 C15.32,12.17 16.58,11.51 17.50,11.48 C21.33,11.36 22.30,7.00 18.50,7.00 C20.31,7.00 21.00,7.54 21.00,8.94 C21.00,10.01 20.55,11.16 20.00,11.50 C18.63,12.35 18.74,18.61 20.16,20.88 C20.79,21.90 21.03,23.47 20.69,24.37 C20.68,24.40 20.67,24.42 20.66,24.45 C21.28,22.72 19.21,19.76 17.91,20.55 C17.23,20.98 15.69,20.28 14.35,19.26 C16.65,20.50 17.00,19.89 17.00,16.00 ZM 12.09 16.60 C12.03,16.43 12.00,16.27 12.00,16.13 C12.00,15.84 12.11,15.50 12.31,15.15 C12.11,15.63 12.03,16.12 12.09,16.60 Z" fill="rgb(78,91,90)"/>
<path d="M 17.25 25.34 C16.56,25.06 16.00,24.30 16.00,23.66 C16.00,21.97 11.91,19.50 9.11,19.50 C7.80,19.50 6.27,18.77 5.70,17.89 C5.19,17.07 5.00,16.24 5.10,15.51 C4.91,17.58 6.74,19.51 8.97,19.25 C10.17,19.11 12.12,19.67 13.30,20.50 C16.37,22.65 16.68,22.35 14.17,19.69 C13.80,19.29 13.48,18.91 13.21,18.54 C13.37,18.68 13.55,18.80 13.75,18.92 C13.96,19.04 14.16,19.16 14.35,19.26 C15.69,20.28 17.23,20.98 17.91,20.55 C19.21,19.76 21.28,22.72 20.66,24.45 C20.03,26.05 19.39,26.20 17.25,25.34 ZM 14.93 12.52 C15.57,11.94 16.00,11.30 16.00,10.88 C16.00,10.21 15.03,10.41 13.54,11.38 C12.90,11.80 12.07,12.18 11.21,12.47 C13.68,11.59 16.00,9.78 16.00,8.38 C16.00,7.57 17.04,7.00 18.50,7.00 C22.30,7.00 21.33,11.36 17.50,11.48 C16.77,11.50 15.83,11.92 14.93,12.52 ZM 12.14 15.51 C12.27,14.74 12.80,14.05 13.71,13.42 C13.04,13.94 12.57,14.53 12.31,15.15 C12.24,15.27 12.18,15.39 12.14,15.51 ZM 8.50 13.00 C7.97,13.00 7.44,13.10 6.97,13.26 C7.42,13.09 7.93,13.00 8.50,13.00 Z" fill="rgb(162,167,166)"/>
<path d="M 13.30 20.50 C12.12,19.67 10.17,19.11 8.97,19.25 C6.42,19.54 4.40,17.00 5.31,14.64 C5.67,13.71 7.05,13.00 8.50,13.00 C9.92,13.00 12.18,12.27 13.54,11.38 C15.03,10.41 16.00,10.21 16.00,10.88 C16.00,11.49 15.10,12.55 14.00,13.23 C11.42,14.85 11.47,16.80 14.17,19.69 C16.68,22.35 16.37,22.65 13.30,20.50 Z" fill="rgb(221,221,218)"/>
</g>
</svg>
